<svg width="18" height="20" viewBox="0 0 18 20" fill="none" xmlns="http://www.w3.org/2000/svg">
<path d="M12.8711 14.8611C13.2762 14.8611 13.6205 14.7193 13.9041 14.4357C14.1876 14.1521 14.3294 13.8078 14.3294 13.4027C14.3294 12.9976 14.1876 12.6533 13.9041 12.3697C13.6205 12.0862 13.2762 11.9444 12.8711 11.9444C12.466 11.9444 12.1216 12.0862 11.8381 12.3697C11.5545 12.6533 11.4127 12.9976 11.4127 13.4027C11.4127 13.8078 11.5545 14.1521 11.8381 14.4357C12.1216 14.7193 12.466 14.8611 12.8711 14.8611ZM12.8711 17.7777C13.3734 17.7777 13.8352 17.6602 14.2565 17.4253C14.6778 17.1903 15.0181 16.8784 15.2773 16.4895C14.9208 16.2789 14.54 16.1168 14.135 16.0034C13.7299 15.89 13.3086 15.8333 12.8711 15.8333C12.4336 15.8333 12.0123 15.89 11.6072 16.0034C11.2021 16.1168 10.8213 16.2789 10.4648 16.4895C10.7241 16.8784 11.0644 17.1903 11.4857 17.4253C11.9069 17.6602 12.3688 17.7777 12.8711 17.7777ZM8.00996 19.7222C5.75764 19.155 3.89827 17.8628 2.43183 15.8454C0.965395 13.8281 0.232178 11.5879 0.232178 9.12495V3.19439L8.00996 0.277723L15.7877 3.19439V8.71175C15.4799 8.58212 15.1639 8.46464 14.8398 8.35932C14.5157 8.254 14.1836 8.17703 13.8433 8.12842V4.5555L8.00996 2.368L2.17662 4.5555V9.12495C2.17662 9.88652 2.2779 10.6481 2.48044 11.4097C2.68299 12.1712 2.96655 12.8964 3.33114 13.585C3.69572 14.2737 4.13727 14.9097 4.65579 15.493C5.17431 16.0763 5.74954 16.5624 6.38148 16.9513C6.55972 17.4699 6.79468 17.9641 7.08634 18.434C7.37801 18.9039 7.71019 19.3252 8.08287 19.6979C8.06667 19.6979 8.05452 19.7019 8.04641 19.71C8.03831 19.7181 8.02616 19.7222 8.00996 19.7222ZM12.8711 19.7222C11.5262 19.7222 10.3797 19.2482 9.43183 18.3003C8.48391 17.3524 8.00996 16.206 8.00996 14.8611C8.00996 13.5161 8.48391 12.3697 9.43183 11.4218C10.3797 10.4739 11.5262 9.99995 12.8711 9.99995C14.216 9.99995 15.3624 10.4739 16.3103 11.4218C17.2582 12.3697 17.7322 13.5161 17.7322 14.8611C17.7322 16.206 17.2582 17.3524 16.3103 18.3003C15.3624 19.2482 14.216 19.7222 12.8711 19.7222Z" fill="#5790FF"/>
</svg>
