<svg width="16" height="20" viewBox="0 0 16 20" fill="none" xmlns="http://www.w3.org/2000/svg">
<path d="M0.232178 16.8055V14.8611H2.17662V8.0555C2.17662 6.71059 2.58171 5.51557 3.3919 4.47043C4.20209 3.42529 5.25533 2.74069 6.55162 2.41661V1.73606C6.55162 1.33096 6.6934 0.986635 6.97697 0.70307C7.26053 0.419506 7.60486 0.277723 8.00996 0.277723C8.41505 0.277723 8.75938 0.419506 9.04294 0.70307C9.32651 0.986635 9.46829 1.33096 9.46829 1.73606V2.41661C10.7646 2.74069 11.8178 3.42529 12.628 4.47043C13.4382 5.51557 13.8433 6.71059 13.8433 8.0555V14.8611H15.7877V16.8055H0.232178ZM8.00996 19.7222C7.47523 19.7222 7.01748 19.5318 6.63669 19.151C6.2559 18.7702 6.06551 18.3124 6.06551 17.7777H9.9544C9.9544 18.3124 9.76401 18.7702 9.38322 19.151C9.00243 19.5318 8.54468 19.7222 8.00996 19.7222ZM4.12107 14.8611H11.8988V8.0555C11.8988 6.98606 11.5181 6.07055 10.7565 5.30897C9.99491 4.5474 9.0794 4.16661 8.00996 4.16661C6.94051 4.16661 6.025 4.5474 5.26343 5.30897C4.50185 6.07055 4.12107 6.98606 4.12107 8.0555V14.8611Z" fill="#5790FF"/>
</svg>
