<svg width="16" height="16" viewBox="0 0 16 16" fill="none" xmlns="http://www.w3.org/2000/svg">
<path d="M8.00996 8.00005C6.94051 8.00005 6.025 7.61927 5.26343 6.85769C4.50185 6.09612 4.12107 5.18061 4.12107 4.11117C4.12107 3.04172 4.50185 2.12621 5.26343 1.36464C6.025 0.603064 6.94051 0.222277 8.00996 0.222277C9.0794 0.222277 9.99491 0.603064 10.7565 1.36464C11.5181 2.12621 11.8988 3.04172 11.8988 4.11117C11.8988 5.18061 11.5181 6.09612 10.7565 6.85769C9.99491 7.61927 9.0794 8.00005 8.00996 8.00005ZM0.232178 15.7778V13.0556C0.232178 12.5047 0.37396 11.9983 0.657525 11.5365C0.94109 11.0747 1.31783 10.7223 1.78773 10.4792C2.79236 9.97691 3.8132 9.60017 4.85023 9.34901C5.88727 9.09786 6.94051 8.97228 8.00996 8.97228C9.0794 8.97228 10.1326 9.09786 11.1697 9.34901C12.2067 9.60017 13.2275 9.97691 14.2322 10.4792C14.7021 10.7223 15.0788 11.0747 15.3624 11.5365C15.646 11.9983 15.7877 12.5047 15.7877 13.0556V15.7778H0.232178ZM2.17662 13.8334H13.8433V13.0556C13.8433 12.8774 13.7987 12.7153 13.7096 12.5695C13.6205 12.4237 13.503 12.3102 13.3572 12.2292C12.4822 11.7917 11.5991 11.4636 10.7079 11.2448C9.81667 11.0261 8.91736 10.9167 8.00996 10.9167C7.10255 10.9167 6.20324 11.0261 5.31204 11.2448C4.42084 11.4636 3.53773 11.7917 2.66273 12.2292C2.5169 12.3102 2.39942 12.4237 2.3103 12.5695C2.22118 12.7153 2.17662 12.8774 2.17662 13.0556V13.8334ZM8.00996 6.05561C8.54468 6.05561 9.00243 5.86522 9.38322 5.48443C9.76401 5.10364 9.9544 4.64589 9.9544 4.11117C9.9544 3.57644 9.76401 3.11869 9.38322 2.7379C9.00243 2.35711 8.54468 2.16672 8.00996 2.16672C7.47523 2.16672 7.01748 2.35711 6.63669 2.7379C6.2559 3.11869 6.06551 3.57644 6.06551 4.11117C6.06551 4.64589 6.2559 5.10364 6.63669 5.48443C7.01748 5.86522 7.47523 6.05561 8.00996 6.05561Z" fill="#5790FF"/>
</svg>
