<svg width="20" height="20" viewBox="0 0 20 20" fill="none" xmlns="http://www.w3.org/2000/svg">
<path d="M4.0309 14.9583C4.85729 14.3263 5.7809 13.8281 6.80173 13.4635C7.82256 13.0989 8.89201 12.9166 10.0101 12.9166C11.1281 12.9166 12.1976 13.0989 13.2184 13.4635C14.2392 13.8281 15.1628 14.3263 15.9892 14.9583C16.5564 14.2939 16.9979 13.5405 17.3139 12.6979C17.6299 11.8553 17.7878 10.956 17.7878 9.99995C17.7878 7.84485 17.0303 6.00978 15.5153 4.49474C14.0002 2.97969 12.1652 2.22217 10.0101 2.22217C7.85497 2.22217 6.0199 2.97969 4.50486 4.49474C2.98981 6.00978 2.23229 7.84485 2.23229 9.99995C2.23229 10.956 2.39027 11.8553 2.70624 12.6979C3.02222 13.5405 3.46377 14.2939 4.0309 14.9583ZM10.0101 10.9722C9.05405 10.9722 8.24791 10.644 7.59166 9.98779C6.93541 9.33154 6.60729 8.52541 6.60729 7.56939C6.60729 6.61337 6.93541 5.80724 7.59166 5.15099C8.24791 4.49474 9.05405 4.16661 10.0101 4.16661C10.9661 4.16661 11.7722 4.49474 12.4285 5.15099C13.0847 5.80724 13.4128 6.61337 13.4128 7.56939C13.4128 8.52541 13.0847 9.33154 12.4285 9.98779C11.7722 10.644 10.9661 10.9722 10.0101 10.9722ZM10.0101 19.7222C8.66516 19.7222 7.40127 19.467 6.2184 18.9565C5.03553 18.4461 4.00659 17.7534 3.13159 16.8784C2.25659 16.0034 1.56388 14.9745 1.05347 13.7916C0.54305 12.6087 0.287842 11.3449 0.287842 9.99995C0.287842 8.65504 0.54305 7.39115 1.05347 6.20828C1.56388 5.02541 2.25659 3.99647 3.13159 3.12147C4.00659 2.24647 5.03553 1.55376 6.2184 1.04335C7.40127 0.532932 8.66516 0.277723 10.0101 0.277723C11.355 0.277723 12.6189 0.532932 13.8017 1.04335C14.9846 1.55376 16.0135 2.24647 16.8885 3.12147C17.7635 3.99647 18.4562 5.02541 18.9667 6.20828C19.4771 7.39115 19.7323 8.65504 19.7323 9.99995C19.7323 11.3449 19.4771 12.6087 18.9667 13.7916C18.4562 14.9745 17.7635 16.0034 16.8885 16.8784C16.0135 17.7534 14.9846 18.4461 13.8017 18.9565C12.6189 19.467 11.355 19.7222 10.0101 19.7222ZM10.0101 17.7777C10.8689 17.7777 11.679 17.6521 12.4406 17.401C13.2022 17.1498 13.899 16.7893 14.5309 16.3194C13.899 15.8495 13.2022 15.489 12.4406 15.2378C11.679 14.9866 10.8689 14.8611 10.0101 14.8611C9.15127 14.8611 8.34108 14.9866 7.57951 15.2378C6.81793 15.489 6.12118 15.8495 5.48923 16.3194C6.12118 16.7893 6.81793 17.1498 7.57951 17.401C8.34108 17.6521 9.15127 17.7777 10.0101 17.7777ZM10.0101 9.02772C10.4314 9.02772 10.7797 8.88999 11.0552 8.61453C11.3307 8.33907 11.4684 7.99069 11.4684 7.56939C11.4684 7.14809 11.3307 6.79971 11.0552 6.52425C10.7797 6.24879 10.4314 6.11106 10.0101 6.11106C9.58877 6.11106 9.24039 6.24879 8.96492 6.52425C8.68946 6.79971 8.55173 7.14809 8.55173 7.56939C8.55173 7.99069 8.68946 8.33907 8.96492 8.61453C9.24039 8.88999 9.58877 9.02772 10.0101 9.02772Z" fill="#5790FF"/>
</svg>
