<svg width="41" height="38" viewBox="0 0 41 38" fill="none" xmlns="http://www.w3.org/2000/svg">
<path d="M20.8001 37.6216L17.9001 35.0035C14.5334 31.9491 11.7501 29.3143 9.55005 27.099C7.35005 24.8837 5.60005 22.895 4.30005 21.1329C3.00005 19.3707 2.09172 17.7512 1.57505 16.2744C1.05838 14.7975 0.800049 13.2871 0.800049 11.7431C0.800049 8.58802 1.85005 5.95318 3.95005 3.8386C6.05005 1.72401 8.66672 0.666721 11.8 0.666721C13.5334 0.666721 15.1834 1.03593 16.7501 1.77436C18.3167 2.51279 19.6667 3.5533 20.8001 4.89589C21.9334 3.5533 23.2834 2.51279 24.8501 1.77436C26.4167 1.03593 28.0667 0.666721 29.8001 0.666721C32.9334 0.666721 35.5501 1.72401 37.6501 3.8386C39.7501 5.95318 40.8001 8.58802 40.8001 11.7431C40.8001 13.2871 40.5417 14.7975 40.0251 16.2744C39.5084 17.7512 38.6001 19.3707 37.3001 21.1329C36.0001 22.895 34.2501 24.8837 32.0501 27.099C29.8501 29.3143 27.0667 31.9491 23.7001 35.0035L20.8001 37.6216ZM20.8001 32.1841C24.0001 29.2975 26.6334 26.8221 28.7001 24.7579C30.7667 22.6936 32.4001 20.8979 33.6001 19.3707C34.8001 17.8435 35.6334 16.4841 36.1001 15.2926C36.5667 14.101 36.8001 12.9179 36.8001 11.7431C36.8001 9.72922 36.1334 8.05098 34.8001 6.70839C33.4667 5.3658 31.8001 4.6945 29.8001 4.6945C28.2334 4.6945 26.7834 5.13923 25.4501 6.0287C24.1167 6.91817 23.2001 8.05098 22.7001 9.42714H18.9001C18.4001 8.05098 17.4834 6.91817 16.1501 6.0287C14.8167 5.13923 13.3667 4.6945 11.8 4.6945C9.80005 4.6945 8.13338 5.3658 6.80005 6.70839C5.46672 8.05098 4.80005 9.72922 4.80005 11.7431C4.80005 12.9179 5.03338 14.101 5.50005 15.2926C5.96672 16.4841 6.80005 17.8435 8.00005 19.3707C9.20005 20.8979 10.8334 22.6936 12.9001 24.7579C14.9667 26.8221 17.6001 29.2975 20.8001 32.1841Z" fill="#FF262E"/>
</svg>
