<svg width="22" height="23" viewBox="0 0 22 23" fill="none" xmlns="http://www.w3.org/2000/svg">
<g clip-path="url(#clip0_255_1394)" filter="url(#filter0_d_255_1394)">
<path d="M10.9683 1.32922C7.29979 1.32922 4.3291 4.30656 4.3291 7.97506C4.3291 11.6436 7.29979 14.6209 10.9683 14.6209C14.6434 14.6209 17.6208 11.6436 17.6208 7.97506C17.6208 4.30656 14.6434 1.32922 10.9683 1.32922ZM10.9749 13.2917C8.03748 13.2917 5.65827 10.9125 5.65827 7.97506C5.65827 5.0376 8.03748 2.65839 10.9749 2.65839C13.9124 2.65839 16.2916 5.0376 16.2916 7.97506C16.2916 10.9125 13.9124 13.2917 10.9749 13.2917Z" fill="black"/>
<path d="M11.3072 4.6521H10.3103V8.6396L13.7994 10.733L14.2978 9.9156L11.3072 8.14116V4.6521Z" fill="black"/>
</g>
<defs>
<filter id="filter0_d_255_1394" x="-1" y="0" width="23.95" height="23.95" filterUnits="userSpaceOnUse" color-interpolation-filters="sRGB">
<feFlood flood-opacity="0" result="BackgroundImageFix"/>
<feColorMatrix in="SourceAlpha" type="matrix" values="0 0 0 0 0 0 0 0 0 0 0 0 0 0 0 0 0 0 127 0" result="hardAlpha"/>
<feOffset dy="4"/>
<feGaussianBlur stdDeviation="2"/>
<feComposite in2="hardAlpha" operator="out"/>
<feColorMatrix type="matrix" values="0 0 0 0 0 0 0 0 0 0 0 0 0 0 0 0 0 0 0.25 0"/>
<feBlend mode="normal" in2="BackgroundImageFix" result="effect1_dropShadow_255_1394"/>
<feBlend mode="normal" in="SourceGraphic" in2="effect1_dropShadow_255_1394" result="shape"/>
</filter>
<clipPath id="clip0_255_1394">
<rect width="15.95" height="15.95" fill="white" transform="translate(3)"/>
</clipPath>
</defs>
</svg>
