<svg width="12" height="14" viewBox="0 0 12 14" fill="none" xmlns="http://www.w3.org/2000/svg">
<path d="M7.66667 10.6666C7.2 10.6666 6.80556 10.5055 6.48333 10.1833C6.16111 9.86103 6 9.46659 6 8.99992C6 8.53325 6.16111 8.13881 6.48333 7.81659C6.80556 7.49436 7.2 7.33325 7.66667 7.33325C8.13333 7.33325 8.52778 7.49436 8.85 7.81659C9.17222 8.13881 9.33333 8.53325 9.33333 8.99992C9.33333 9.46659 9.17222 9.86103 8.85 10.1833C8.52778 10.5055 8.13333 10.6666 7.66667 10.6666ZM1.33333 13.3333C0.966667 13.3333 0.652778 13.2027 0.391667 12.9416C0.130556 12.6805 0 12.3666 0 11.9999V2.66658C0 2.29992 0.130556 1.98603 0.391667 1.72492C0.652778 1.46381 0.966667 1.33325 1.33333 1.33325H2V-8.2016e-05H3.33333V1.33325H8.66667V-8.2016e-05H10V1.33325H10.6667C11.0333 1.33325 11.3472 1.46381 11.6083 1.72492C11.8694 1.98603 12 2.29992 12 2.66658V11.9999C12 12.3666 11.8694 12.6805 11.6083 12.9416C11.3472 13.2027 11.0333 13.3333 10.6667 13.3333H1.33333ZM1.33333 11.9999H10.6667V5.33325H1.33333V11.9999ZM1.33333 3.99992H10.6667V2.66658H1.33333V3.99992Z" fill="#5790FF"/>
</svg>
