<svg width="7" height="12" viewBox="0 0 7 12" fill="none" xmlns="http://www.w3.org/2000/svg">
<path d="M2.46667 12V10.5667C1.87778 10.4333 1.36944 10.1778 0.941667 9.8C0.513889 9.42222 0.2 8.88889 0 8.2L1.23333 7.7C1.4 8.23333 1.64722 8.63889 1.975 8.91667C2.30278 9.19444 2.73333 9.33333 3.26667 9.33333C3.72222 9.33333 4.10833 9.23056 4.425 9.025C4.74167 8.81944 4.9 8.5 4.9 8.06667C4.9 7.67778 4.77778 7.36944 4.53333 7.14167C4.28889 6.91389 3.72222 6.65556 2.83333 6.36667C1.87778 6.06667 1.22222 5.70833 0.866667 5.29167C0.511111 4.875 0.333333 4.36667 0.333333 3.76667C0.333333 3.04444 0.566667 2.48333 1.03333 2.08333C1.5 1.68333 1.97778 1.45555 2.46667 1.4V-9.53674e-07H3.8V1.4C4.35556 1.48889 4.81389 1.69167 5.175 2.00833C5.53611 2.325 5.8 2.71111 5.96667 3.16667L4.73333 3.7C4.6 3.34444 4.41111 3.07778 4.16667 2.9C3.92222 2.72222 3.58889 2.63333 3.16667 2.63333C2.67778 2.63333 2.30556 2.74167 2.05 2.95833C1.79444 3.175 1.66667 3.44444 1.66667 3.76667C1.66667 4.13333 1.83333 4.42222 2.16667 4.63333C2.5 4.84444 3.07778 5.06667 3.9 5.3C4.66667 5.52222 5.24722 5.875 5.64167 6.35833C6.03611 6.84167 6.23333 7.4 6.23333 8.03333C6.23333 8.82222 6 9.42222 5.53333 9.83333C5.06667 10.2444 4.48889 10.5 3.8 10.6V12H2.46667Z" fill="#5790FF"/>
</svg>
