<svg width="14" height="13" viewBox="0 0 14 13" fill="none" xmlns="http://www.w3.org/2000/svg">
<path d="M6.66667 12.2334L5.7 11.3667C4.57778 10.3556 3.65 9.4834 2.91667 8.75006C2.18333 8.01673 1.6 7.3584 1.16667 6.77506C0.733333 6.19173 0.430556 5.65562 0.258333 5.16673C0.0861111 4.67784 0 4.17784 0 3.66673C0 2.62229 0.35 1.75006 1.05 1.05006C1.75 0.350064 2.62222 6.48499e-05 3.66667 6.48499e-05C4.24444 6.48499e-05 4.79444 0.122287 5.31667 0.366731C5.83889 0.611176 6.28889 0.95562 6.66667 1.40006C7.04445 0.95562 7.49444 0.611176 8.01667 0.366731C8.53889 0.122287 9.08889 6.48499e-05 9.66667 6.48499e-05C10.7111 6.48499e-05 11.5833 0.350064 12.2833 1.05006C12.9833 1.75006 13.3333 2.62229 13.3333 3.66673C13.3333 4.17784 13.2472 4.67784 13.075 5.16673C12.9028 5.65562 12.6 6.19173 12.1667 6.77506C11.7333 7.3584 11.15 8.01673 10.4167 8.75006C9.68333 9.4834 8.75556 10.3556 7.63333 11.3667L6.66667 12.2334ZM6.66667 10.4334C7.73333 9.47784 8.61111 8.6584 9.3 7.97506C9.98889 7.29173 10.5333 6.69729 10.9333 6.19173C11.3333 5.68618 11.6111 5.23618 11.7667 4.84173C11.9222 4.44729 12 4.05562 12 3.66673C12 3.00006 11.7778 2.44451 11.3333 2.00006C10.8889 1.55562 10.3333 1.3334 9.66667 1.3334C9.14444 1.3334 8.66111 1.48062 8.21667 1.77506C7.77222 2.06951 7.46667 2.44451 7.3 2.90006H6.03333C5.86667 2.44451 5.56111 2.06951 5.11667 1.77506C4.67222 1.48062 4.18889 1.3334 3.66667 1.3334C3 1.3334 2.44444 1.55562 2 2.00006C1.55556 2.44451 1.33333 3.00006 1.33333 3.66673C1.33333 4.05562 1.41111 4.44729 1.56667 4.84173C1.72222 5.23618 2 5.68618 2.4 6.19173C2.8 6.69729 3.34444 7.29173 4.03333 7.97506C4.72222 8.6584 5.6 9.47784 6.66667 10.4334Z" fill="#5790FF"/>
</svg>
