<svg width="11" height="14" viewBox="0 0 11 14" fill="none" xmlns="http://www.w3.org/2000/svg">
<path d="M5.33333 6.66658C5.7 6.66658 6.01389 6.53603 6.275 6.27492C6.53611 6.01381 6.66667 5.69992 6.66667 5.33325C6.66667 4.96659 6.53611 4.6527 6.275 4.39158C6.01389 4.13047 5.7 3.99992 5.33333 3.99992C4.96667 3.99992 4.65278 4.13047 4.39167 4.39158C4.13056 4.6527 4 4.96659 4 5.33325C4 5.69992 4.13056 6.01381 4.39167 6.27492C4.65278 6.53603 4.96667 6.66658 5.33333 6.66658ZM5.33333 11.5666C6.68889 10.3221 7.69444 9.19159 8.35 8.17492C9.00556 7.15825 9.33333 6.25547 9.33333 5.46658C9.33333 4.25547 8.94722 3.26381 8.175 2.49158C7.40278 1.71936 6.45556 1.33325 5.33333 1.33325C4.21111 1.33325 3.26389 1.71936 2.49167 2.49158C1.71944 3.26381 1.33333 4.25547 1.33333 5.46658C1.33333 6.25547 1.66111 7.15825 2.31667 8.17492C2.97222 9.19159 3.97778 10.3221 5.33333 11.5666ZM5.33333 13.3333C3.54444 11.811 2.20833 10.3971 1.325 9.09159C0.441667 7.78603 0 6.5777 0 5.46658C0 3.79992 0.536111 2.47214 1.60833 1.48325C2.68056 0.494363 3.92222 -8.2016e-05 5.33333 -8.2016e-05C6.74444 -8.2016e-05 7.98611 0.494363 9.05833 1.48325C10.1306 2.47214 10.6667 3.79992 10.6667 5.46658C10.6667 6.5777 10.225 7.78603 9.34167 9.09159C8.45833 10.3971 7.12222 11.811 5.33333 13.3333Z" fill="#5790FF"/>
</svg>
