<svg width="20" height="19" viewBox="0 0 20 19" fill="none" xmlns="http://www.w3.org/2000/svg">
<path d="M10.0101 18.75L8.60034 17.4861C6.96377 16.0116 5.61076 14.7396 4.54131 13.6701C3.47187 12.6007 2.62118 11.6406 1.98923 10.7899C1.35729 9.93924 0.915735 9.15741 0.664578 8.44444C0.41342 7.73148 0.287842 7.00232 0.287842 6.25694C0.287842 4.7338 0.798258 3.4618 1.81909 2.44097C2.83993 1.42014 4.11192 0.909721 5.63506 0.909721C6.47766 0.909721 7.27974 1.08796 8.04131 1.44444C8.80289 1.80093 9.45914 2.30324 10.0101 2.95139C10.561 2.30324 11.2172 1.80093 11.9788 1.44444C12.7404 1.08796 13.5425 0.909721 14.3851 0.909721C15.9082 0.909721 17.1802 1.42014 18.201 2.44097C19.2219 3.4618 19.7323 4.7338 19.7323 6.25694C19.7323 7.00232 19.6067 7.73148 19.3556 8.44444C19.1044 9.15741 18.6628 9.93924 18.0309 10.7899C17.399 11.6406 16.5483 12.6007 15.4788 13.6701C14.4094 14.7396 13.0564 16.0116 11.4198 17.4861L10.0101 18.75ZM10.0101 16.125C11.5656 14.7315 12.8457 13.5365 13.8503 12.5399C14.855 11.5434 15.649 10.6765 16.2323 9.93924C16.8156 9.20197 17.2207 8.54572 17.4476 7.97049C17.6744 7.39525 17.7878 6.82407 17.7878 6.25694C17.7878 5.28472 17.4638 4.47454 16.8156 3.82639C16.1675 3.17824 15.3573 2.85417 14.3851 2.85417C13.6235 2.85417 12.9186 3.06887 12.2705 3.49826C11.6223 3.92766 11.1767 4.47454 10.9337 5.13889H9.08645C8.8434 4.47454 8.3978 3.92766 7.74965 3.49826C7.1015 3.06887 6.39664 2.85417 5.63506 2.85417C4.66284 2.85417 3.85266 3.17824 3.20451 3.82639C2.55636 4.47454 2.23229 5.28472 2.23229 6.25694C2.23229 6.82407 2.34571 7.39525 2.57256 7.97049C2.79942 8.54572 3.20451 9.20197 3.78784 9.93924C4.37118 10.6765 5.16516 11.5434 6.16979 12.5399C7.17442 13.5365 8.45451 14.7315 10.0101 16.125Z" fill="#5790FF"/>
</svg>
