<svg width="17" height="20" viewBox="0 0 17 20" fill="none" xmlns="http://www.w3.org/2000/svg">
<path d="M5.09329 19.7222V6.86453C3.61875 6.47564 2.43993 5.6614 1.55683 4.42182C0.673729 3.18224 0.232178 1.80087 0.232178 0.277723H2.17662C2.17662 1.62263 2.61007 2.76904 3.47697 3.71696C4.34387 4.66488 5.44977 5.13883 6.79468 5.13883H9.22523C9.71134 5.13883 10.165 5.22795 10.5863 5.4062C11.0076 5.58444 11.3884 5.8437 11.7287 6.18397L16.128 10.5833L14.7669 11.9444L10.9266 8.10411V19.7222H8.98218V13.8888H7.03773V19.7222H5.09329ZM8.00996 4.16661C7.47523 4.16661 7.01748 3.97622 6.63669 3.59543C6.2559 3.21465 6.06551 2.75689 6.06551 2.22217C6.06551 1.68744 6.2559 1.22969 6.63669 0.848904C7.01748 0.468117 7.47523 0.277723 8.00996 0.277723C8.54468 0.277723 9.00243 0.468117 9.38322 0.848904C9.76401 1.22969 9.9544 1.68744 9.9544 2.22217C9.9544 2.75689 9.76401 3.21465 9.38322 3.59543C9.00243 3.97622 8.54468 4.16661 8.00996 4.16661Z" fill="#5790FF"/>
</svg>
