<svg width="20" height="20" viewBox="0 0 20 20" fill="none" xmlns="http://www.w3.org/2000/svg">
<path d="M7.33648 19.7222L6.94759 16.6111C6.73694 16.53 6.53845 16.4328 6.35211 16.3194C6.16576 16.206 5.98347 16.0844 5.80523 15.9548L2.91287 17.1701L0.239258 12.552L2.74273 10.6562C2.72653 10.5428 2.71842 10.4334 2.71842 10.3281C2.71842 10.2227 2.71842 10.1134 2.71842 9.99995C2.71842 9.88652 2.71842 9.77714 2.71842 9.67182C2.71842 9.5665 2.72653 9.45712 2.74273 9.3437L0.239258 7.44786L2.91287 2.82981L5.80523 4.04508C5.98347 3.91545 6.16981 3.79393 6.36426 3.6805C6.5587 3.56708 6.75315 3.46985 6.94759 3.38883L7.33648 0.277723H12.6837L13.0726 3.38883C13.2832 3.46985 13.4817 3.56708 13.6681 3.6805C13.8544 3.79393 14.0367 3.91545 14.215 4.04508L17.1073 2.82981L19.7809 7.44786L17.2775 9.3437C17.2937 9.45712 17.3018 9.5665 17.3018 9.67182C17.3018 9.77714 17.3018 9.88652 17.3018 9.99995C17.3018 10.1134 17.3018 10.2227 17.3018 10.3281C17.3018 10.4334 17.2856 10.5428 17.2531 10.6562L19.7566 12.552L17.083 17.1701L14.215 15.9548C14.0367 16.0844 13.8504 16.206 13.6559 16.3194C13.4615 16.4328 13.267 16.53 13.0726 16.6111L12.6837 19.7222H7.33648ZM9.03787 17.7777H10.958L11.2983 15.2013C11.8006 15.0717 12.2665 14.8813 12.6959 14.6302C13.1253 14.379 13.5182 14.0752 13.8747 13.7187L16.2809 14.7152L17.2288 13.0624L15.1386 11.4826C15.2196 11.2557 15.2763 11.0167 15.3087 10.7656C15.3411 10.5144 15.3573 10.2592 15.3573 9.99995C15.3573 9.74069 15.3411 9.48548 15.3087 9.23432C15.2763 8.98316 15.2196 8.74416 15.1386 8.51731L17.2288 6.93745L16.2809 5.28467L13.8747 6.3055C13.5182 5.93282 13.1253 5.6209 12.6959 5.36974C12.2665 5.11858 11.8006 4.92819 11.2983 4.79856L10.9823 2.22217H9.06218L8.7219 4.79856C8.21958 4.92819 7.75373 5.11858 7.32433 5.36974C6.89493 5.6209 6.50199 5.92471 6.14551 6.2812L3.73926 5.28467L2.79134 6.93745L4.88162 8.493C4.8006 8.73606 4.74389 8.97911 4.71148 9.22217C4.67907 9.46522 4.66287 9.72448 4.66287 9.99995C4.66287 10.2592 4.67907 10.5104 4.71148 10.7534C4.74389 10.9965 4.8006 11.2395 4.88162 11.4826L2.79134 13.0624L3.73926 14.7152L6.14551 13.6944C6.50199 14.0671 6.89493 14.379 7.32433 14.6302C7.75373 14.8813 8.21958 15.0717 8.7219 15.2013L9.03787 17.7777ZM10.0587 13.4027C10.9985 13.4027 11.8006 13.0705 12.465 12.4062C13.1293 11.7418 13.4615 10.9398 13.4615 9.99995C13.4615 9.06013 13.1293 8.25805 12.465 7.5937C11.8006 6.92934 10.9985 6.59717 10.0587 6.59717C9.10268 6.59717 8.29655 6.92934 7.6403 7.5937C6.98405 8.25805 6.65593 9.06013 6.65593 9.99995C6.65593 10.9398 6.98405 11.7418 7.6403 12.4062C8.29655 13.0705 9.10268 13.4027 10.0587 13.4027Z" fill="#5790FF"/>
</svg>
