<svg width="18" height="20" viewBox="0 0 18 20" fill="none" xmlns="http://www.w3.org/2000/svg">
<path d="M2.20445 19.75C1.66973 19.75 1.21198 19.5596 0.83119 19.1788C0.450403 18.798 0.26001 18.3403 0.26001 17.8056V4.19444C0.26001 3.65972 0.450403 3.20197 0.83119 2.82118C1.21198 2.44039 1.66973 2.25 2.20445 2.25H6.28779C6.49844 1.66667 6.85087 1.19676 7.34508 0.840277C7.83929 0.483795 8.39427 0.305555 9.01001 0.305555C9.62575 0.305555 10.1807 0.483795 10.6749 0.840277C11.1692 1.19676 11.5216 1.66667 11.7322 2.25H15.8156C16.3503 2.25 16.808 2.44039 17.1888 2.82118C17.5696 3.20197 17.76 3.65972 17.76 4.19444V17.8056C17.76 18.3403 17.5696 18.798 17.1888 19.1788C16.808 19.5596 16.3503 19.75 15.8156 19.75H2.20445ZM2.20445 17.8056H15.8156V4.19444H2.20445V17.8056ZM4.1489 15.8611H10.9545V13.9167H4.1489V15.8611ZM4.1489 11.9722H13.8711V10.0278H4.1489V11.9722ZM4.1489 8.08333H13.8711V6.13889H4.1489V8.08333ZM9.01001 3.46528C9.22066 3.46528 9.39485 3.39641 9.53258 3.25868C9.67031 3.12095 9.73918 2.94676 9.73918 2.73611C9.73918 2.52546 9.67031 2.35127 9.53258 2.21354C9.39485 2.07581 9.22066 2.00694 9.01001 2.00694C8.79936 2.00694 8.62517 2.07581 8.48744 2.21354C8.34971 2.35127 8.28084 2.52546 8.28084 2.73611C8.28084 2.94676 8.34971 3.12095 8.48744 3.25868C8.62517 3.39641 8.79936 3.46528 9.01001 3.46528Z" fill="#5790FF"/>
</svg>
