<svg width="20" height="14" viewBox="0 0 20 14" fill="none" xmlns="http://www.w3.org/2000/svg">
<path d="M0.0200195 13.7142V11.3142C0.0200195 10.8285 0.147517 10.3821 0.402513 9.97495C0.657509 9.56781 0.996289 9.25709 1.41885 9.0428C2.32227 8.59995 3.24025 8.2678 4.17281 8.04638C5.10536 7.82495 6.05249 7.71423 7.01419 7.71423C7.97589 7.71423 8.92302 7.82495 9.85557 8.04638C10.7881 8.2678 11.7061 8.59995 12.6095 9.0428C13.0321 9.25709 13.3709 9.56781 13.6259 9.97495C13.8809 10.3821 14.0084 10.8285 14.0084 11.3142V13.7142H0.0200195ZM15.7569 13.7142V11.1428C15.7569 10.5142 15.5784 9.91066 15.2214 9.33209C14.8644 8.75352 14.3581 8.25709 13.7024 7.8428C14.4455 7.92852 15.1449 8.07495 15.8006 8.28209C16.4563 8.48923 17.0683 8.7428 17.6366 9.0428C18.1612 9.32852 18.5619 9.64638 18.8387 9.99638C19.1156 10.3464 19.254 10.7285 19.254 11.1428V13.7142H15.7569ZM7.01419 6.85709C6.05249 6.85709 5.22922 6.52138 4.54437 5.84995C3.85953 5.17852 3.51711 4.37138 3.51711 3.42852C3.51711 2.48566 3.85953 1.67852 4.54437 1.00709C5.22922 0.335662 6.05249 -5.24521e-05 7.01419 -5.24521e-05C7.97589 -5.24521e-05 8.79916 0.335662 9.48401 1.00709C10.1689 1.67852 10.5113 2.48566 10.5113 3.42852C10.5113 4.37138 10.1689 5.17852 9.48401 5.84995C8.79916 6.52138 7.97589 6.85709 7.01419 6.85709ZM15.7569 3.42852C15.7569 4.37138 15.4145 5.17852 14.7296 5.84995C14.0448 6.52138 13.2215 6.85709 12.2598 6.85709C12.0995 6.85709 11.8955 6.83923 11.6478 6.80352C11.4001 6.76781 11.1961 6.72852 11.0358 6.68566C11.4293 6.22852 11.7316 5.72138 11.9429 5.16423C12.1542 4.60709 12.2598 4.02852 12.2598 3.42852C12.2598 2.82852 12.1542 2.24995 11.9429 1.69281C11.7316 1.13566 11.4293 0.62852 11.0358 0.171377C11.2398 0.0999489 11.4438 0.0535192 11.6478 0.0320911C11.8518 0.010663 12.0558 -5.24521e-05 12.2598 -5.24521e-05C13.2215 -5.24521e-05 14.0448 0.335662 14.7296 1.00709C15.4145 1.67852 15.7569 2.48566 15.7569 3.42852ZM1.76856 11.9999H12.2598V11.3142C12.2598 11.1571 12.2197 11.0142 12.1396 10.8857C12.0595 10.7571 11.9538 10.6571 11.8227 10.5857C11.0358 10.1999 10.2417 9.91066 9.44029 9.7178C8.63888 9.52495 7.83018 9.42852 7.01419 9.42852C6.1982 9.42852 5.3895 9.52495 4.58809 9.7178C3.78667 9.91066 2.99254 10.1999 2.2057 10.5857C2.07456 10.6571 1.96892 10.7571 1.88877 10.8857C1.80863 11.0142 1.76856 11.1571 1.76856 11.3142V11.9999ZM7.01419 5.14281C7.49504 5.14281 7.90668 4.97495 8.2491 4.63923C8.59152 4.30352 8.76273 3.89995 8.76273 3.42852C8.76273 2.95709 8.59152 2.55352 8.2491 2.2178C7.90668 1.88209 7.49504 1.71423 7.01419 1.71423C6.53334 1.71423 6.12171 1.88209 5.77928 2.2178C5.43686 2.55352 5.26565 2.95709 5.26565 3.42852C5.26565 3.89995 5.43686 4.30352 5.77928 4.63923C6.12171 4.97495 6.53334 5.14281 7.01419 5.14281Z" fill="#5790FF"/>
</svg>
