<svg width="18" height="16" viewBox="0 0 18 16" fill="none" xmlns="http://www.w3.org/2000/svg">
<path d="M0.232178 9.9445V8.00005H7.03773V9.9445H0.232178ZM0.232178 6.05561V4.11117H10.9266V6.05561H0.232178ZM0.232178 2.16672V0.222277H10.9266V2.16672H0.232178ZM8.98218 15.7778V12.7882L14.3537 7.44103C14.4995 7.29519 14.6616 7.18987 14.8398 7.12505C15.0181 7.06024 15.1963 7.02783 15.3745 7.02783C15.569 7.02783 15.7553 7.06429 15.9336 7.13721C16.1118 7.21012 16.2738 7.3195 16.4197 7.46533L17.319 8.36464C17.4486 8.51047 17.5499 8.67251 17.6228 8.85075C17.6957 9.02899 17.7322 9.20723 17.7322 9.38547C17.7322 9.56371 17.6998 9.746 17.635 9.93235C17.5701 10.1187 17.4648 10.2848 17.319 10.4306L11.9718 15.7778H8.98218ZM10.4405 14.3195H11.3641L14.3051 11.3542L13.8676 10.8924L13.4058 10.4549L10.4405 13.3959V14.3195ZM13.8676 10.8924L13.4058 10.4549L14.3051 11.3542L13.8676 10.8924Z" fill="#5790FF"/>
</svg>
