<svg width="16" height="16" viewBox="0 0 16 16" fill="none" xmlns="http://www.w3.org/2000/svg">
<g clip-path="url(#clip0_255_1394)">
<path d="M7.96829 1.32922C4.29979 1.32922 1.3291 4.30656 1.3291 7.97506C1.3291 11.6436 4.29979 14.6209 7.96829 14.6209C11.6434 14.6209 14.6208 11.6436 14.6208 7.97506C14.6208 4.30656 11.6434 1.32922 7.96829 1.32922ZM7.97493 13.2917C5.03748 13.2917 2.65827 10.9125 2.65827 7.97506C2.65827 5.0376 5.03748 2.65839 7.97493 2.65839C10.9124 2.65839 13.2916 5.0376 13.2916 7.97506C13.2916 10.9125 10.9124 13.2917 7.97493 13.2917Z" fill="black"/>
<path d="M8.30718 4.6521H7.3103V8.6396L10.7994 10.733L11.2978 9.9156L8.30718 8.14116V4.6521Z" fill="black"/>
</g>
<defs>
<clipPath id="clip0_255_1394">
<rect width="15.95" height="15.95" fill="white"/>
</clipPath>
</defs>
</svg>
